<svg xmlns="http://www.w3.org/2000/svg" viewBox="0 0 303 251.16"><defs><style>.cls-1,.cls-44,.cls-45,.cls-5,.cls-6,.cls-7{fill:none;}.cls-1{stroke:#c7c8ca;}.cls-1,.cls-5,.cls-6,.cls-7{stroke-linejoin:round;}.cls-1,.cls-5{stroke-width:0.25px;}.cls-2{font-size:8px;font-family:Whitney-Semibold, Whitney Semibold;}.cls-13,.cls-15,.cls-2,.cls-8{fill:#231f20;}.cls-3{fill:#00add8;}.cls-4{fill:#78c7e4;}.cls-5{stroke:#231f20;}.cls-44,.cls-6{stroke:#00add8;}.cls-44,.cls-45,.cls-6,.cls-7{stroke-linecap:round;}.cls-6{stroke-dasharray:85725 114300;}.cls-45,.cls-7{stroke:#78c7e4;stroke-dasharray:2 2;}.cls-8{font-size:6px;font-family:Whitney-Medium, Whitney;}.cls-9{letter-spacing:-0.01em;}.cls-10{letter-spacing:0em;}.cls-11{letter-spacing:-0.01em;}.cls-12{letter-spacing:-0.01em;}.cls-13,.cls-15,.cls-46{font-size:7px;font-family:Whitney-Book, Whitney Book;}.cls-14,.cls-15{letter-spacing:-0.01em;}.cls-16{letter-spacing:0em;}.cls-17{letter-spacing:0.02em;}.cls-18{letter-spacing:-0.04em;}.cls-19{letter-spacing:0.04em;}.cls-20{letter-spacing:0.04em;}.cls-21{letter-spacing:0.01em;}.cls-22{letter-spacing:-0.03em;}.cls-23{letter-spacing:0.06em;}.cls-24{letter-spacing:-0.01em;}.cls-25{letter-spacing:0.08em;}.cls-26{letter-spacing:0.01em;}.cls-27{letter-spacing:0em;}.cls-28{letter-spacing:0em;}.cls-29{letter-spacing:0.01em;}.cls-30{letter-spacing:0.08em;}.cls-31{letter-spacing:0em;}.cls-32{letter-spacing:0.03em;}.cls-33{letter-spacing:0.08em;}.cls-34{letter-spacing:0em;}.cls-35{letter-spacing:0.07em;}.cls-36{letter-spacing:-0.07em;}.cls-37{letter-spacing:0em;}.cls-38{letter-spacing:0.07em;}.cls-39{letter-spacing:-0.03em;}.cls-40{letter-spacing:0.06em;}.cls-41{letter-spacing:0.03em;}.cls-42{letter-spacing:-0.03em;}.cls-43{letter-spacing:0.03em;}.cls-44,.cls-45{stroke-miterlimit:10;}.cls-46{fill:#010101;}.cls-47{fill:#a6d7eb;}</style></defs><title>goal6-g1</title><g id="Figure_9" data-name="Figure 9"><line class="cls-1" x1="42.49" y1="177.29" x2="272.98" y2="177.29"/><line class="cls-1" x1="42.49" y1="160.92" x2="268.98" y2="160.92"/><line class="cls-1" x1="42.49" y1="145.07" x2="268.98" y2="145.07"/><line class="cls-1" x1="42.49" y1="129.22" x2="268.98" y2="129.22"/><line class="cls-1" x1="42.49" y1="112.86" x2="268.98" y2="112.86"/><line class="cls-1" x1="42.49" y1="97.01" x2="268.98" y2="97.01"/><line class="cls-1" x1="42.49" y1="81.16" x2="268.98" y2="81.16"/><line class="cls-1" x1="42.49" y1="64.8" x2="268.98" y2="64.8"/><line class="cls-1" x1="42.49" y1="48.94" x2="268.98" y2="48.94"/><line class="cls-1" x1="42.49" y1="33.09" x2="268.98" y2="33.09"/><text class="cls-2" transform="translate(12 8.4) scale(0.99 1)">Offcial development assistance commitments and disbursements to the water <tspan x="0" y="10">sector, 2007–2016 (millions of constant US$ and percentage of total ODA)</tspan></text><polygon class="cls-3" points="52.1 78.34 58.1 78.34 58.1 177.03 52.1 177.03 52.1 78.34 52.1 78.34"/><polygon class="cls-4" points="58.1 117.46 64.1 117.46 64.1 177.29 58.1 177.29 58.1 117.46 58.1 117.46"/><polygon class="cls-3" points="73.97 82.95 79.97 82.95 79.97 177.03 73.97 177.03 73.97 82.95 73.97 82.95"/><polygon class="cls-4" points="79.97 109.79 85.97 109.79 85.97 177.29 79.97 177.29 79.97 109.79 79.97 109.79"/><polygon class="cls-3" points="95.84 80.39 101.84 80.39 101.84 177.03 95.84 177.03 95.84 80.39 95.84 80.39"/><polygon class="cls-4" points="101.84 109.79 107.84 109.79 107.84 177.29 101.84 177.29 101.84 109.79 101.84 109.79"/><polygon class="cls-3" points="117.72 81.41 123.72 81.41 123.72 177.03 117.72 177.03 117.72 81.41 117.72 81.41"/><polygon class="cls-4" points="123.72 100.08 129.72 100.08 129.72 177.29 123.72 177.29 123.72 100.08 123.72 100.08"/><polygon class="cls-3" points="139.59 81.92 145.59 81.92 145.59 177.03 139.59 177.03 139.59 81.92 139.59 81.92"/><polygon class="cls-4" points="145.59 98.03 151.59 98.03 151.59 177.29 145.59 177.29 145.59 98.03 145.59 98.03"/><polygon class="cls-3" points="161.46 46.13 167.46 46.13 167.46 177.03 161.46 177.03 161.46 46.13 161.46 46.13"/><polygon class="cls-4" points="167.46 99.56 173.46 99.56 173.46 177.29 167.46 177.29 167.46 99.56 167.46 99.56"/><polygon class="cls-3" points="183.33 48.69 189.33 48.69 189.33 177.03 183.33 177.03 183.33 48.69 183.33 48.69"/><polygon class="cls-4" points="189.33 98.03 195.33 98.03 195.33 177.29 189.33 177.29 189.33 98.03 189.33 98.03"/><polygon class="cls-3" points="205.2 53.29 211.2 53.29 211.2 177.03 205.2 177.03 205.2 53.29 205.2 53.29"/><polygon class="cls-4" points="211.2 88.83 217.2 88.83 217.2 177.29 211.2 177.29 211.2 88.83 211.2 88.83"/><polygon class="cls-3" points="227.07 62.49 233.07 62.49 233.07 177.03 227.07 177.03 227.07 62.49 227.07 62.49"/><polygon class="cls-4" points="233.07 83.71 239.07 83.71 239.07 177.29 233.07 177.29 233.07 83.71 233.07 83.71"/><polygon class="cls-3" points="248.94 80.9 254.94 80.9 254.94 177.03 248.94 177.03 248.94 80.9 248.94 80.9"/><polygon class="cls-4" points="254.94 81.67 260.94 81.67 260.94 177.29 254.94 177.29 254.94 81.67 254.94 81.67"/><path class="cls-5" d="M42.49,177.29h3m-3-16.37h3m-3-15.85h3m-3-15.85h3m-3-16.36h3M42.49,97h3m-3-15.85h3m-3-16.36h3m-3-15.86h3m-3-15.85h3"/><line class="cls-5" x1="268.98" y1="177.29" x2="268.98" y2="33.09"/><line class="cls-5" x1="268.98" y1="177.29" x2="271.98" y2="177.29"/><line class="cls-5" x1="268.98" y1="160.92" x2="271.98" y2="160.92"/><line class="cls-5" x1="268.98" y1="145.07" x2="271.98" y2="145.07"/><line class="cls-5" x1="268.98" y1="129.22" x2="271.98" y2="129.22"/><line class="cls-5" x1="268.98" y1="112.86" x2="271.98" y2="112.86"/><line class="cls-5" x1="268.98" y1="97.01" x2="271.98" y2="97.01"/><line class="cls-5" x1="268.98" y1="81.16" x2="271.98" y2="81.16"/><line class="cls-5" x1="268.98" y1="64.8" x2="271.98" y2="64.8"/><line class="cls-5" x1="268.98" y1="48.94" x2="271.98" y2="48.94"/><line class="cls-5" x1="268.98" y1="33.09" x2="271.98" y2="33.09"/><line class="cls-5" x1="45.49" y1="177.29" x2="45.49" y2="33.09"/><line class="cls-5" x1="42.49" y1="177.29" x2="45.49" y2="177.29"/><line class="cls-5" x1="42.49" y1="160.92" x2="45.49" y2="160.92"/><line class="cls-5" x1="42.49" y1="145.07" x2="45.49" y2="145.07"/><line class="cls-5" x1="42.49" y1="129.22" x2="45.49" y2="129.22"/><line class="cls-5" x1="42.49" y1="112.86" x2="45.49" y2="112.86"/><line class="cls-5" x1="42.49" y1="97.01" x2="45.49" y2="97.01"/><line class="cls-5" x1="42.49" y1="81.16" x2="45.49" y2="81.16"/><line class="cls-5" x1="42.49" y1="64.8" x2="45.49" y2="64.8"/><line class="cls-5" x1="42.49" y1="48.94" x2="45.49" y2="48.94"/><line class="cls-5" x1="42.49" y1="33.09" x2="45.49" y2="33.09"/><line class="cls-5" x1="42.49" y1="177.29" x2="272.98" y2="177.29"/><polyline class="cls-6" points="58.05 60.19 80.2 80.65 102.36 81.16 124.51 82.18 146.66 79.11 168.81 49.97 190.96 64.28 213.6 60.7 235.75 88.32 257.9 99.05"/><polyline class="cls-7" points="58.05 95.47 80.2 94.45 102.36 98.03 124.51 92.92 146.66 90.87 168.81 90.87 190.96 98.54 213.6 88.32 235.75 97.01 257.9 97.52"/><text class="cls-8" transform="translate(275.13 178.61)">0</text><text class="cls-8" transform="translate(276.7 162.59)">1</text><text class="cls-8" transform="translate(275.64 146.58)">2</text><text class="cls-8" transform="translate(275.76 130.56)">3</text><text class="cls-8" transform="translate(275.31 114.55)">4</text><text class="cls-8" transform="translate(275.68 98.53)">5</text><text class="cls-8" transform="translate(275.46 82.52)">6</text><text class="cls-8" transform="translate(275.68 66.5)">7</text><text class="cls-8" transform="translate(275.44 50.48)">8</text><text class="cls-8" transform="translate(275.46 34.47)">9</text><text class="cls-8" transform="translate(33.95 178.61)">0</text><text class="cls-8" transform="translate(23.68 162.59)"><tspan class="cls-9">1</tspan><tspan class="cls-10" x="2.11" y="0">,</tspan><tspan class="cls-11" x="3.47" y="0">50</tspan><tspan x="10.27" y="0">0</tspan></text><text class="cls-8" transform="translate(22.19 146.58)"><tspan class="cls-11">3</tspan><tspan x="3.05" y="0">,</tspan><tspan class="cls-11" x="4.41" y="0">00</tspan><tspan x="11.77" y="0">0</tspan></text><text class="cls-8" transform="translate(22.29 130.56)"><tspan class="cls-11">4</tspan><tspan x="3.5" y="0">,</tspan><tspan class="cls-12" x="4.86" y="0">50</tspan><tspan x="11.66" y="0">0</tspan></text><text class="cls-8" transform="translate(21.89 114.55)"><tspan class="cls-11">6</tspan><tspan x="3.35" y="0">,</tspan><tspan class="cls-11" x="4.71" y="0">00</tspan><tspan x="12.07" y="0">0</tspan></text><text class="cls-8" transform="translate(22.66 98.53)"><tspan class="cls-11">7</tspan><tspan x="3.13" y="0">,</tspan><tspan class="cls-11" x="4.49" y="0">50</tspan><tspan x="11.3" y="0">0</tspan></text><text class="cls-8" transform="translate(21.89 82.52)"><tspan class="cls-11">9</tspan><tspan x="3.35" y="0">,</tspan><tspan class="cls-11" x="4.71" y="0">00</tspan><tspan x="12.07" y="0">0</tspan></text><text class="cls-8" transform="translate(20 66.5)"><tspan class="cls-9">10</tspan><tspan class="cls-10" x="5.78" y="0">,</tspan><tspan class="cls-11" x="7.15" y="0">50</tspan><tspan x="13.95" y="0">0</tspan></text><text class="cls-8" transform="translate(19.96 50.48)"><tspan class="cls-9">12</tspan><tspan class="cls-10" x="5.27" y="0">,</tspan><tspan class="cls-11" x="6.64" y="0">00</tspan><tspan x="13.99" y="0">0</tspan></text><text class="cls-8" transform="translate(20.63 34.47)"><tspan class="cls-9">13</tspan><tspan class="cls-10" x="5.15" y="0">,</tspan><tspan class="cls-11" x="6.52" y="0">50</tspan><tspan x="13.32" y="0">0</tspan></text><text class="cls-13" transform="translate(50.12 188.59)"><tspan class="cls-14">200</tspan><tspan x="12.24" y="0">7</tspan></text><text class="cls-13" transform="translate(71.85 188.59)"><tspan class="cls-14">200</tspan><tspan x="12.24" y="0">8</tspan></text><text class="cls-13" transform="translate(93.73 188.59)"><tspan class="cls-14">200</tspan><tspan x="12.24" y="0">9</tspan></text><text class="cls-13" transform="translate(116.35 188.59)"><tspan class="cls-14">201</tspan><tspan x="10.42" y="0">0</tspan></text><text class="cls-15" transform="translate(139.14 188.59)">201<tspan class="cls-16" x="10.42" y="0">1</tspan></text><text class="cls-13" transform="translate(160.38 188.59)"><tspan class="cls-14">201</tspan><tspan x="10.42" y="0">2</tspan></text><text class="cls-13" transform="translate(182.29 188.59)"><tspan class="cls-14">201</tspan><tspan x="10.42" y="0">3</tspan></text><text class="cls-15" transform="translate(203.92 188.59)">201<tspan class="cls-16" x="10.42" y="0">4</tspan></text><text class="cls-13" transform="translate(225.99 188.59)"><tspan class="cls-14">201</tspan><tspan x="10.42" y="0">5</tspan></text><text class="cls-13" transform="translate(247.75 188.59)"><tspan class="cls-14">201</tspan><tspan x="10.42" y="0">6</tspan></text><text class="cls-13" transform="translate(285.69 68.61) rotate(90)"><tspan class="cls-17">P</tspan><tspan class="cls-18" x="3.88" y="0">e</tspan><tspan class="cls-19" x="7.06" y="0">r</tspan><tspan class="cls-20" x="9.72" y="0">c</tspan><tspan class="cls-18" x="13.24" y="0">e</tspan><tspan class="cls-21" x="16.43" y="0">n</tspan><tspan class="cls-22" x="20.18" y="0">t</tspan><tspan class="cls-23" x="22.3" y="0">a</tspan><tspan class="cls-24" x="26.14" y="0">g</tspan><tspan class="cls-18" x="29.59" y="0">e</tspan><tspan class="cls-25" x="32.77" y="0"> </tspan><tspan class="cls-26" x="34.92" y="0">o</tspan><tspan class="cls-27" x="38.66" y="0">f</tspan><tspan class="cls-28" x="40.76" y="0"> </tspan><tspan class="cls-22" x="42.37" y="0">t</tspan><tspan class="cls-29" x="44.49" y="0">o</tspan><tspan class="cls-22" x="48.23" y="0">t</tspan><tspan class="cls-23" x="50.35" y="0">a</tspan><tspan class="cls-30" x="54.19" y="0">l</tspan><tspan class="cls-31" x="56.37" y="0"> </tspan><tspan class="cls-32" x="57.98" y="0">O</tspan><tspan x="63.41" y="0">DA</tspan></text><text class="cls-13" transform="translate(17.45 150.81) rotate(-90)">M<tspan class="cls-33" x="6.35" y="0">ill</tspan><tspan class="cls-34" x="12.89" y="0">i</tspan><tspan class="cls-29" x="14.53" y="0">o</tspan><tspan class="cls-21" x="18.27" y="0">n</tspan><tspan class="cls-35" x="22.02" y="0">s</tspan><tspan class="cls-36" x="25.58" y="0"> </tspan><tspan class="cls-29" x="26.66" y="0">o</tspan><tspan class="cls-37" x="30.39" y="0">f</tspan><tspan class="cls-36" x="32.49" y="0"> </tspan><tspan class="cls-20" x="33.57" y="0">c</tspan><tspan class="cls-26" x="37.1" y="0">o</tspan><tspan class="cls-21" x="40.84" y="0">n</tspan><tspan class="cls-38" x="44.59" y="0">s</tspan><tspan class="cls-39" x="48.15" y="0">t</tspan><tspan class="cls-40" x="50.27" y="0">a</tspan><tspan class="cls-21" x="54.1" y="0">n</tspan><tspan class="cls-39" x="57.85" y="0">t</tspan><tspan class="cls-36" x="59.97" y="0"> </tspan><tspan class="cls-41" x="61.05" y="0">2016</tspan><tspan class="cls-36" x="76.44" y="0"> </tspan><tspan class="cls-42" x="77.52" y="0">U</tspan><tspan class="cls-37" x="82.1" y="0">S</tspan><tspan class="cls-43" x="85.7" y="0">$</tspan><tspan x="89.67" y="0"> </tspan></text><line class="cls-44" x1="119.22" y1="231.83" x2="128.22" y2="231.83"/><line class="cls-45" x1="119.22" y1="244.83" x2="128.22" y2="244.83"/><circle class="cls-3" cx="124.28" cy="204.8" r="3"/><text class="cls-46" transform="translate(131.85 207.28)">Commitments (left axis)</text><circle class="cls-47" cx="124.38" cy="218.34" r="3"/><text class="cls-46" transform="translate(131.85 220.6)">Disbursements (left axis)</text><text class="cls-46" transform="translate(131.85 233.91)">Commitments as percentage of total ODA (right axis)</text><text class="cls-46" transform="translate(131.85 247.23)">Disbursements as percentage of total ODA (right axis)</text></g></svg>